<svg id="blower" xmlns="http://www.w3.org/2000/svg" viewBox="0 0 175.8 63.18"><defs>
	<style>.cls-1,.cls-2{fill:#f5ffff;stroke-width:7px;}.cls-1,.cls-2,.cls-3{stroke:#000;stroke-miterlimit:10;}.cls-1,.cls-3{fill-rule:evenodd;}.cls-3{fill:none;stroke-width:5px;}

	#blower:hover .cls-2{fill:#1a2121;}
	#blower:hover .cls-3{fill:#6fc6d1;}
	#blower:hover .cls-1{fill:#c4a01a;}
	
	</style></defs><title>blower</title><polygon class="cls-1" points="5.8 36.83 28.65 36.83 28.65 53.52 14.59 53.52 5.8 36.83"/><rect class="cls-2" x="28.65" y="35.07" width="14.94" height="24.61"/><path class="cls-3" d="M48.86,49.13H154.32a26.6,26.6,0,0,0,6.15-2.64c1.91-1.12,10.12-5.94,12.31-15.82A23.89,23.89,0,0,0,171,15.73c-1-2.29-3.26-7.35-8.79-10.54a20.32,20.32,0,0,0-20.21,0c-.51.3-8.93,5.42-9.67,14.94A15.69,15.69,0,0,0,135,30.67c3.49,4.89,8.89,5.86,10.54,6.16,1.81.32,6.82,1.22,11.43-1.76,4.14-2.68,8.15-8.61,6.15-14.06a10.22,10.22,0,0,0-7-6.15c-3.23-.82-7.29-.13-9.67,2.63-.54.63-2.34,2.72-1.76,5.28a6.24,6.24,0,0,0,5.28,4.39"/><rect x="48.86" y="38.58" width="86.13" height="5.27"/></svg>