<svg id="big-cake" xmlns="http://www.w3.org/2000/svg" viewBox="0 0 172 117.54"><defs>
<style>
.cls-1{fill:#f5ffff;}
.cls-2{fill:#fff;}.cls-3{fill:none;stroke:#000;stroke-miterlimit:10;stroke-width:6px;}

#big-cake:hover .cls-1{fill:#f1cbff;}
#big-cake:hover .cls-2{fill:#bae1ff;}
</style></defs><title>cake2</title><rect class="cls-1" x="27.5" y="29.04" width="117" height="47" rx="13.25" ry="13.25"/><path d="M131.25,32.54A9.76,9.76,0,0,1,141,42.29v20.5a9.76,9.76,0,0,1-9.75,9.75H40.75A9.76,9.76,0,0,1,31,62.79V42.29a9.76,9.76,0,0,1,9.75-9.75h90.5m0-7H40.75A16.75,16.75,0,0,0,24,42.29v20.5A16.75,16.75,0,0,0,40.75,79.54h90.5A16.75,16.75,0,0,0,148,62.79V42.29a16.75,16.75,0,0,0-16.75-16.75Z"/><rect class="cls-2" x="3.5" y="67.04" width="165" height="47" rx="13.25" ry="13.25"/><path d="M155.25,70.54A9.76,9.76,0,0,1,165,80.29v20.5a9.76,9.76,0,0,1-9.75,9.75H16.75A9.76,9.76,0,0,1,7,100.79V80.29a9.76,9.76,0,0,1,9.75-9.75h138.5m0-7H16.75A16.75,16.75,0,0,0,0,80.29v20.5a16.75,16.75,0,0,0,16.75,16.75h138.5A16.75,16.75,0,0,0,172,100.79V80.29a16.75,16.75,0,0,0-16.75-16.75Z"/><line class="cls-3" x1="85.86" y1="28.68" x2="85.5" y2="0.04"/><line class="cls-3" x1="122.86" y1="28.68" x2="122.5" y2="0.04"/><line class="cls-3" x1="47.86" y1="28.68" x2="47.5" y2="0.04"/></svg>