<svg id="present" xmlns="http://www.w3.org/2000/svg" viewBox="0 0 142 125.05"><defs>
<style>
.cls-1{fill:#fff;stroke-width:7px;}.cls-1,
.cls-2,
.cls-3{stroke:#000;stroke-miterlimit:10;}.cls-2{fill:#f5ffff;}.cls-2,
.cls-3{stroke-width:4px;}.cls-3{fill:none;}

#present:hover .cls-1{fill:#E9DDAF;}
#present:hover .cls-2{fill:#473956;}

</style></defs><title>gift</title><rect class="cls-1" x="10.5" y="45.55" width="122" height="76"/><rect class="cls-1" x="3.5" y="20.55" width="135" height="25"/><rect class="cls-2" x="55" y="19.05" width="33" height="102"/><path class="cls-3" d="M71.7,15.08c.61-3-8.56-7.62-14-9.71-3.62-1.39-17.8-6.83-24.05,0-.3.32-2.88,3.22-2.24,6.07.71,3.16,5,4.46,8.39,5.46a39.26,39.26,0,0,0,14,1.22C65.44,17.48,71.27,17.16,71.7,15.08Z"/><path class="cls-3" d="M39.08,39a28.36,28.36,0,0,0,14.59-2.79,33.17,33.17,0,0,0,11.16-9.32A45.66,45.66,0,0,0,71.7,15.69"/><path class="cls-3" d="M71.62,15.08c-.61-3,8.55-7.62,14-9.71,3.62-1.39,17.8-6.83,24,0,.3.32,2.88,3.22,2.24,6.07-.71,3.16-5,4.46-8.39,5.46a39.26,39.26,0,0,1-14,1.22C77.88,17.48,72.05,17.16,71.62,15.08Z"/><path class="cls-3" d="M104.24,39a28.35,28.35,0,0,1-14.59-2.79,33.17,33.17,0,0,1-11.16-9.32,45.66,45.66,0,0,1-6.87-11.17"/></svg>