<svg id="hat" xmlns="http://www.w3.org/2000/svg" viewBox="0 0 100.71 131.96"><defs>
<style>
.cls-1,
.cls-3{fill:none;stroke:#000;stroke-miterlimit:10;}.cls-1{stroke-width:6px;}.cls-1,.cls-2,
.cls-3{fill-rule:evenodd;}
.cls-3{stroke-width:3px;}

#hat:hover .cls-1{fill:#ffbdbd;}
</style></defs><title>hat</title><polygon class="cls-1" points="50.35 20.96 73.27 74.96 96.18 128.96 50.35 128.96 4.53 128.96 27.44 74.96 50.35 20.96"/><polygon class="cls-2" points="43.07 90.86 38.55 87.98 33.62 90.07 34.96 84.88 31.45 80.84 36.8 80.51 39.56 75.92 41.52 80.91 46.74 82.11 42.61 85.52 43.07 90.86"/><polygon class="cls-2" points="75.07 119.86 70.55 116.98 65.62 119.07 66.96 113.88 63.45 109.84 68.8 109.51 71.56 104.92 73.52 109.91 78.74 111.11 74.61 114.52 75.07 119.86"/><polygon class="cls-2" points="51.07 112.86 46.55 109.98 41.62 112.07 42.96 106.88 39.45 102.84 44.8 102.51 47.56 97.92 49.52 102.91 54.74 104.11 50.61 107.52 51.07 112.86"/><polygon class="cls-2" points="28.07 120.86 23.55 117.98 18.62 120.07 19.96 114.88 16.45 110.84 21.8 110.51 24.56 105.92 26.52 110.91 31.74 112.11 27.61 115.52 28.07 120.86"/><polygon class="cls-2" points="67.07 92.86 62.55 89.98 57.62 92.07 58.96 86.88 55.45 82.84 60.8 82.51 63.56 77.92 65.52 82.91 70.74 84.11 66.61 87.52 67.07 92.86"/><polygon class="cls-2" points="54.07 66.86 49.55 63.98 44.62 66.07 45.96 60.88 42.45 56.84 47.8 56.51 50.56 51.92 52.52 56.91 57.74 58.11 53.61 61.52 54.07 66.86"/><path class="cls-3" d="M51.18,18a19.07,19.07,0,0,1,1.5-7.5,15,15,0,0,1,4-6,13.72,13.72,0,0,1,6-3"/><path class="cls-3" d="M50.46,18.14a19.28,19.28,0,0,1,4.25-6.36,15,15,0,0,1,6-4,13.73,13.73,0,0,1,6.69-.49"/><path class="cls-3" d="M50,19.09a19.08,19.08,0,0,1,6.52-4A14.94,14.94,0,0,1,63.62,14a13.76,13.76,0,0,1,6.27,2.37"/></svg>