<svg id="slice" xmlns="http://www.w3.org/2000/svg" viewBox="0 0 148.52 118.49"><defs>
	<style>
		.cls-1{fill:#fff;stroke-width:6px;}.cls-1,.cls-2,
		.cls-3{stroke:#000;stroke-miterlimit:10;}.cls-2{fill:none;stroke-width:8px;}
		.cls-3{fill:#f2f2f2;stroke-width:5px;}
		
	#slice:hover .cls-1{fill:#b8dbd3;}
	#slice:hover .cls-3{fill:#f1cbff;}
	</style></defs><title>slice</title><path class="cls-1" d="M3.42,106.72V70.28c0-4.09,2.83-2.63,6.82-3.54L134.69,38.39c5.51-1.25,10.76-4,10.73,1.59l-.2,41.38a8.77,8.77,0,0,1-7,8.53L14,115.31A8.77,8.77,0,0,1,3.42,106.72Z"/><path class="cls-1" d="M10.19,62.74,89.51,4a5.09,5.09,0,0,1,5.61-.3L143,31.86a5.09,5.09,0,0,1-1.39,9.33L14.4,71.77C1,75-.85,70.91,10.19,62.74Z"/><line class="cls-2" x1="3.42" y1="95.63" x2="145.31" y2="64.97"/><path class="cls-3" d="M66.83,13.84c1.38,0,9.56.26,14.54,6.71,1,1.32,4.13,5.34,3,9.32C82.53,36.19,71.47,37.1,66.83,37c-3.26-.11-7.34-.25-9.69-3.36-1.83-2.43-2.4-6.39-.74-8.57,1.22-1.6,2.9-1.27,6.71-3.73a25.76,25.76,0,0,0,3-2.23Z"/></svg>